<?xml version="1.0" encoding="UTF-8"?>
<svg width="16" height="16" version="1.1" viewBox="0 0 4.2333 4.2333" xmlns="http://www.w3.org/2000/svg">
 <g fill="#474747">
  <path d="m2.2521 0.79056c-0.94667 0-1.7198 0.7731-1.7198 1.7198s0.7731 1.7198 1.7198 1.7198 1.7198-0.7731 1.7198-1.7198-0.7731-1.7198-1.7198-1.7198zm0 0.52916c0.66068 0 1.1906 0.52993 1.1906 1.1906s-0.52993 1.1906-1.1906 1.1906-1.1906-0.52993-1.1906-1.1906 0.52993-1.1906 1.1906-1.1906z" color="#000000" color-rendering="auto" dominant-baseline="auto" enable-background="new" image-rendering="auto" shape-rendering="auto" solid-color="#000000" stroke-width=".26458" style="font-feature-settings:normal;font-variant-alternates:normal;font-variant-caps:normal;font-variant-ligatures:normal;font-variant-numeric:normal;font-variant-position:normal;isolation:auto;mix-blend-mode:normal;shape-padding:0;text-decoration-color:#000000;text-decoration-line:none;text-decoration-style:solid;text-indent:0;text-orientation:mixed;text-transform:none;white-space:normal"/>
  <path d="m1.8552-0.00318h0.79374c0.14658 0 0.26458 0.118 0.26458 0.26458s-0.118 0.26458-0.26458 0.26458h-0.79374c-0.14658 0-0.26458-0.118-0.26458-0.26458s0.118-0.26458 0.26458-0.26458z" color="#000000" color-rendering="auto" image-rendering="auto" shape-rendering="auto" solid-color="#000000" stroke-width=".26458" style="isolation:auto;mix-blend-mode:normal"/>
  <path d="m2.3844-0.00318v1.0583h-0.26458v-1.0583z" color="#000000" color-rendering="auto" image-rendering="auto" shape-rendering="auto" solid-color="#000000" stroke-width=".26458" style="isolation:auto;mix-blend-mode:normal"/>
  <path d="m2.1198 1.5843a1.0583 1.0583 0 0 1 1.0583 1.0583h-1.0583z" color="#000000" enable-background="new" stroke-width="0"/>
 </g>
</svg>
