<?xml version="1.0" encoding="UTF-8" standalone="no"?>
<svg
   xmlns:osb="http://www.openswatchbook.org/uri/2009/osb"
   xmlns:dc="http://purl.org/dc/elements/1.1/"
   xmlns:cc="http://creativecommons.org/ns#"
   xmlns:rdf="http://www.w3.org/1999/02/22-rdf-syntax-ns#"
   xmlns:svg="http://www.w3.org/2000/svg"
   xmlns="http://www.w3.org/2000/svg"
   width="16"
   viewBox="0 0 16 16"
   version="1.1"
   id="svg7384"
   height="16">
  <metadata
     id="metadata90">
    <rdf:RDF>
      <cc:Work
         rdf:about="">
        <dc:format>image/svg+xml</dc:format>
        <dc:type
           rdf:resource="http://purl.org/dc/dcmitype/StillImage" />
        <dc:title>Gnome Symbolic Icon Theme</dc:title>
      </cc:Work>
    </rdf:RDF>
  </metadata>
  <title
     id="title9167">Gnome Symbolic Icon Theme</title>
  <defs
     id="defs7386">
    <linearGradient
       osb:paint="solid"
       id="linearGradient7212">
      <stop
         style="stop-color:#000000;stop-opacity:1;"
         offset="0"
         id="stop7214" />
    </linearGradient>
  </defs>
  <g
     transform="translate(-381.0002,-177)"
     style="display:inline"
     id="layer9" />
  <g
     transform="translate(-140,-544)"
     id="layer1" />
  <g
     transform="translate(-140,-544)"
     style="display:inline"
     id="layer10" />
  <g
     transform="translate(-140,-544)"
     id="g6387" />
  <g
     transform="translate(-140,-544)"
     id="layer11">
    <path
       d="m 152.00219,547 c 0.55279,0 0.99781,0.44502 0.99781,0.99781 v 0.004 c 0,0.55279 -0.44502,0.99781 -0.99781,0.99781 h -10.00438 c -0.55279,0 -0.99781,-0.44502 -0.99781,-0.99781 v -0.98838 z"
       id="rect33604"
       style="opacity:1;vector-effect:none;fill:#2e3436;fill-opacity:1;stroke:none;stroke-width:1;stroke-linecap:butt;stroke-linejoin:miter;stroke-miterlimit:4;stroke-dasharray:none;stroke-dashoffset:0;stroke-opacity:1;marker:none" />
    <path
       d="m 143.99781,545 h 0.004 c 0.55279,0 0.99782,0.44502 0.99782,0.99781 v 10.00438 c 0,0.55279 -0.44503,0.99781 -0.99782,0.99781 h -0.004 C 143.44502,557 143,556.55498 143,556.00219 v -10.97313 c 0,0 0.44502,-0.0291 0.99781,-0.0291 z"
       id="rect33608"
       style="opacity:1;vector-effect:none;fill:#2e3436;fill-opacity:1;stroke:none;stroke-width:1;stroke-linecap:butt;stroke-linejoin:miter;stroke-miterlimit:4;stroke-dasharray:none;stroke-dashoffset:0;stroke-opacity:1;marker:none" />
    <path
       d="m 143.99781,556.99996 c -0.55279,0 -0.99781,-0.44502 -0.99781,-0.99781 v -0.004 c 0,-0.55279 0.44502,-0.99781 0.99781,-0.99781 h 10.00438 c 0.55279,0 0.99781,0.44502 0.99781,0.99781 v 0.98838 z"
       id="path7845"
       style="opacity:1;vector-effect:none;fill:#2e3436;fill-opacity:1;stroke:none;stroke-width:1;stroke-linecap:butt;stroke-linejoin:miter;stroke-miterlimit:4;stroke-dasharray:none;stroke-dashoffset:0;stroke-opacity:1;marker:none" />
    <path
       d="m 152.00219,558.99996 h -0.004 c -0.55279,0 -0.99782,-0.44502 -0.99782,-0.99781 v -10.00438 c 0,-0.55279 0.44503,-0.99781 0.99782,-0.99781 h 0.004 c 0.55279,0 0.99781,0.44502 0.99781,0.99781 v 10.97313 c 0,0 -0.44502,0.0291 -0.99781,0.0291 z"
       id="path7847"
       style="opacity:1;vector-effect:none;fill:#2e3436;fill-opacity:1;stroke:none;stroke-width:1;stroke-linecap:butt;stroke-linejoin:miter;stroke-miterlimit:4;stroke-dasharray:none;stroke-dashoffset:0;stroke-opacity:1;marker:none" />
  </g>
</svg>
