<?xml version="1.0" encoding="UTF-8" standalone="no"?>
<svg width="89.286171" height="78.230553" viewBox="0 0 23.623634 20.698502" version="1.1" id="svg8" sodipodi:docname="page-order-design.svg" inkscape:version="1.2.2 (b0a8486541, 2022-12-01)" inkscape:export-filename="document-scanner.png" inkscape:export-xdpi="90" inkscape:export-ydpi="90" xml:space="preserve" xmlns:inkscape="http://www.inkscape.org/namespaces/inkscape" xmlns:sodipodi="http://sodipodi.sourceforge.net/DTD/sodipodi-0.dtd" xmlns="http://www.w3.org/2000/svg" xmlns:svg="http://www.w3.org/2000/svg" xmlns:rdf="http://www.w3.org/1999/02/22-rdf-syntax-ns#" xmlns:cc="http://creativecommons.org/ns#" xmlns:dc="http://purl.org/dc/elements/1.1/"><defs id="defs2"><rect x="2164.6523" y="2737.7656" width="191.67969" height="131.54688" id="rect2181" /><rect x="2164.6523" y="2737.7656" width="191.67969" height="131.54688" id="rect2183" /><rect x="2164.6523" y="2737.7656" width="191.67969" height="131.54688" id="rect2185" /><rect x="2164.6523" y="2737.7656" width="191.67969" height="131.54688" id="rect2187" /></defs><sodipodi:namedview id="base" pagecolor="#ffffff" bordercolor="#666666" borderopacity="1.0" inkscape:pageopacity="1" inkscape:pageshadow="2" inkscape:zoom="1.4142136" inkscape:cx="288.14601" inkscape:cy="210.01071" inkscape:document-units="px" inkscape:current-layer="layer1" showgrid="false" units="px" inkscape:pagecheckerboard="false" inkscape:window-width="1920" inkscape:window-height="1011" inkscape:window-x="0" inkscape:window-y="0" inkscape:window-maximized="1" inkscape:snap-page="true" inkscape:snap-text-baseline="false" inkscape:snap-center="false" inkscape:snap-object-midpoints="true" inkscape:object-paths="true" inkscape:snap-intersection-paths="true" inkscape:snap-bbox="true" inkscape:bbox-paths="true" inkscape:bbox-nodes="true" inkscape:snap-bbox-edge-midpoints="false" inkscape:snap-bbox-midpoints="false" inkscape:snap-smooth-nodes="true" inkscape:snap-midpoints="true" inkscape:snap-nodes="false" inkscape:snap-global="true" inkscape:snap-others="false" fit-margin-top="0" fit-margin-left="0" fit-margin-right="0" fit-margin-bottom="0" showguides="false" inkscape:showpageshadow="false" inkscape:guide-bbox="true" inkscape:deskcolor="#d1d1d1"><inkscape:grid type="xygrid" id="grid3492" originx="-3346.8094" originy="-757.24814" /><sodipodi:guide position="317.7991,-512.60175" orientation="1,0" id="guide241284" inkscape:locked="false" /><sodipodi:guide position="418.34075,-515.24759" orientation="1,0" id="guide241286" inkscape:locked="false" /><sodipodi:guide position="368.06994,-560.22677" orientation="1,0" id="guide241528" inkscape:locked="false" /></sodipodi:namedview><metadata id="metadata5"><rdf:RDF><cc:Work rdf:about=""><dc:format>image/svg+xml</dc:format><dc:type rdf:resource="http://purl.org/dc/dcmitype/StillImage" /></cc:Work></rdf:RDF></metadata><g inkscape:label="PageOrder" inkscape:groupmode="layer" id="layer1" transform="translate(-3439.2844,884.74139)"><filter id="a" height="1" width="1" x="0" y="0"><feColorMatrix in="SourceGraphic" type="matrix" values="0 0 0 0 1 0 0 0 0 1 0 0 0 0 1 0 0 0 1 0" id="feColorMatrix112013" /></filter><mask id="b"><g filter="url(#a)" id="g112018"><path d="M 0,0 H 16 V 16 H 0 Z" fill-opacity="0.3" id="path112016" /></g></mask><clipPath id="c"><path d="M 0,0 H 1024 V 800 H 0 Z" id="path112021" /></clipPath><mask id="d"><g filter="url(#a)" id="g112026"><path d="M 0,0 H 16 V 16 H 0 Z" fill-opacity="0.05" id="path112024" /></g></mask><clipPath id="e"><path d="M 0,0 H 1024 V 800 H 0 Z" id="path112029" /></clipPath><mask id="f"><g filter="url(#a)" id="g112034"><path d="M 0,0 H 16 V 16 H 0 Z" fill-opacity="0.05" id="path112032" /></g></mask><clipPath id="g"><path d="M 0,0 H 1024 V 800 H 0 Z" id="path112037" /></clipPath><mask id="h"><g filter="url(#a)" id="g112042"><path d="M 0,0 H 16 V 16 H 0 Z" fill-opacity="0.05" id="path112040" /></g></mask><clipPath id="i"><path d="M 0,0 H 1024 V 800 H 0 Z" id="path112045" /></clipPath><mask id="j"><g filter="url(#a)" id="g112050"><path d="M 0,0 H 16 V 16 H 0 Z" fill-opacity="0.05" id="path112048" /></g></mask><clipPath id="k"><path d="M 0,0 H 1024 V 800 H 0 Z" id="path112053" /></clipPath><mask id="l"><g filter="url(#a)" id="g112058"><path d="M 0,0 H 16 V 16 H 0 Z" fill-opacity="0.05" id="path112056" /></g></mask><clipPath id="m"><path d="M 0,0 H 1024 V 800 H 0 Z" id="path112061" /></clipPath><mask id="n"><g filter="url(#a)" id="g112066"><path d="M 0,0 H 16 V 16 H 0 Z" fill-opacity="0.05" id="path112064" /></g></mask><clipPath id="o"><path d="M 0,0 H 1024 V 800 H 0 Z" id="path112069" /></clipPath><mask id="p"><g filter="url(#a)" id="g112074"><path d="M 0,0 H 16 V 16 H 0 Z" fill-opacity="0.3" id="path112072" /></g></mask><clipPath id="q"><path d="M 0,0 H 1024 V 800 H 0 Z" id="path112077" /></clipPath><mask id="r"><g filter="url(#a)" id="g112082"><path d="M 0,0 H 16 V 16 H 0 Z" fill-opacity="0.5" id="path112080" /></g></mask><clipPath id="s"><path d="M 0,0 H 1024 V 800 H 0 Z" id="path112085" /></clipPath><mask id="t"><g filter="url(#a)" id="g112090"><path d="M 0,0 H 16 V 16 H 0 Z" fill-opacity="0.4" id="path112088" /></g></mask><clipPath id="u"><path d="M 0,0 H 1024 V 800 H 0 Z" id="path112093" /></clipPath><mask id="v"><g filter="url(#a)" id="g112098"><path d="M 0,0 H 16 V 16 H 0 Z" fill-opacity="0.4" id="path112096" /></g></mask><clipPath id="w"><path d="M 0,0 H 1024 V 800 H 0 Z" id="path112101" /></clipPath><mask id="x"><g filter="url(#a)" id="g112106"><path d="M 0,0 H 16 V 16 H 0 Z" fill-opacity="0.5" id="path112104" /></g></mask><clipPath id="y"><path d="M 0,0 H 1024 V 800 H 0 Z" id="path112109" /></clipPath><mask id="z"><g filter="url(#a)" id="g112114"><path d="M 0,0 H 16 V 16 H 0 Z" fill-opacity="0.5" id="path112112" /></g></mask><clipPath id="A"><path d="M 0,0 H 1024 V 800 H 0 Z" id="path112117" /></clipPath><filter id="a-5" height="1" width="1" x="0" y="0"><feColorMatrix in="SourceGraphic" type="matrix" values="0 0 0 0 1 0 0 0 0 1 0 0 0 0 1 0 0 0 1 0" id="feColorMatrix36614" /></filter><mask id="b-4"><g filter="url(#a)" id="g36619" style="filter:url(#a-5)"><path d="M 0,0 H 16 V 16 H 0 Z" fill-opacity="0.3" id="path36617" /></g></mask><clipPath id="c-7"><path d="M 0,0 H 1600 V 1200 H 0 Z" id="path36622" /></clipPath><mask id="d-6"><g filter="url(#a)" id="g36627" style="filter:url(#a-5)"><path d="M 0,0 H 16 V 16 H 0 Z" fill-opacity="0.05" id="path36625" /></g></mask><clipPath id="e-5"><path d="M 0,0 H 1600 V 1200 H 0 Z" id="path36630" /></clipPath><mask id="f-6"><g filter="url(#a)" id="g36635" style="filter:url(#a-5)"><path d="M 0,0 H 16 V 16 H 0 Z" fill-opacity="0.05" id="path36633" /></g></mask><clipPath id="g-9"><path d="M 0,0 H 1600 V 1200 H 0 Z" id="path36638" /></clipPath><mask id="h-3"><g filter="url(#a)" id="g36643" style="filter:url(#a-5)"><path d="M 0,0 H 16 V 16 H 0 Z" fill-opacity="0.05" id="path36641" /></g></mask><clipPath id="i-7"><path d="M 0,0 H 1600 V 1200 H 0 Z" id="path36646" /></clipPath><mask id="j-4"><g filter="url(#a)" id="g36651" style="filter:url(#a-5)"><path d="M 0,0 H 16 V 16 H 0 Z" fill-opacity="0.05" id="path36649" /></g></mask><clipPath id="k-5"><path d="M 0,0 H 1600 V 1200 H 0 Z" id="path36654" /></clipPath><mask id="l-2"><g filter="url(#a)" id="g36659" style="filter:url(#a-5)"><path d="M 0,0 H 16 V 16 H 0 Z" fill-opacity="0.05" id="path36657" /></g></mask><clipPath id="m-5"><path d="M 0,0 H 1600 V 1200 H 0 Z" id="path36662" /></clipPath><mask id="n-4"><g filter="url(#a)" id="g36667" style="filter:url(#a-5)"><path d="M 0,0 H 16 V 16 H 0 Z" fill-opacity="0.05" id="path36665" /></g></mask><clipPath id="o-7"><path d="M 0,0 H 1600 V 1200 H 0 Z" id="path36670" /></clipPath><mask id="p-4"><g filter="url(#a)" id="g36675" style="filter:url(#a-5)"><path d="M 0,0 H 16 V 16 H 0 Z" fill-opacity="0.3" id="path36673" /></g></mask><clipPath id="q-4"><path d="M 0,0 H 1600 V 1200 H 0 Z" id="path36678" /></clipPath><mask id="r-3"><g filter="url(#a)" id="g36683" style="filter:url(#a-5)"><path d="M 0,0 H 16 V 16 H 0 Z" fill-opacity="0.5" id="path36681" /></g></mask><clipPath id="s-0"><path d="M 0,0 H 1600 V 1200 H 0 Z" id="path36686" /></clipPath><g id="g2179" style="stroke-width:1.77641" transform="matrix(0.56530015,0,0,0.56057826,1575.0247,-749.61738)" inkscape:label="flip-before" inkscape:export-filename="flip-before.svg" inkscape:export-xdpi="90" inkscape:export-ydpi="90"><g id="g2147" inkscape:label="Page 1"><rect style="opacity:1;fill:#c1d8f3;fill-opacity:1;stroke:#3584e4;stroke-width:0.940016;stroke-linecap:round;stroke-dasharray:none;stroke-opacity:1" id="rect2139" width="14.816667" height="20.108334" x="3298.2927" y="-240.57396" rx="2.8082428" ry="2.8318973" /><text xml:space="preserve" transform="matrix(0.53168659,0,0,0.53260281,2099.375,-1685.7101)" id="text2145" style="font-style:normal;font-variant:normal;font-weight:normal;font-stretch:normal;font-size:8.61817px;line-height:1.25;font-family:Cantarell;-inkscape-font-specification:'Cantarell, @wght=700';font-variant-ligatures:normal;font-variant-caps:normal;font-variant-numeric:normal;font-variant-east-asian:normal;font-variation-settings:'wght' 700;white-space:pre;shape-inside:url(#rect2181);display:inline;fill:#3584e4;fill-opacity:1;stroke:none;stroke-width:0.883233" x="2.8013399" y="0"><tspan x="2258.5316" y="2745.5048" id="tspan5421"><tspan style="text-align:center;text-anchor:middle" id="tspan5419">1</tspan></tspan></text></g><g id="g2157" inkscape:label="Page 2" transform="translate(16.053851)" style="stroke-width:1.77641"><rect style="opacity:1;fill:#ffffff;fill-opacity:1;stroke:#3584e4;stroke-width:0.940016;stroke-linecap:round;stroke-dasharray:none;stroke-opacity:1" id="rect2149" width="14.816667" height="20.108334" x="-3305.6521" y="216.3275" rx="2.8082428" ry="2.8318973" transform="scale(-1)" /><text xml:space="preserve" transform="matrix(0.53168659,0,0,0.53260281,2092.0563,-1680.653)" id="text2155" style="font-style:normal;font-variant:normal;font-weight:normal;font-stretch:normal;font-size:8.61817px;line-height:1.25;font-family:Cantarell;-inkscape-font-specification:'Cantarell, @wght=700';font-variant-ligatures:normal;font-variant-caps:normal;font-variant-numeric:normal;font-variant-east-asian:normal;font-variation-settings:'wght' 700;white-space:pre;shape-inside:url(#rect2183);display:inline;fill:#3584e4;fill-opacity:1;stroke:none;stroke-width:0.883233" x="2.8013399" y="0"><tspan x="2258.1093" y="2745.5048" id="tspan5425"><tspan style="text-align:center;text-anchor:middle" id="tspan5423">2</tspan></tspan></text></g><g id="g2167" inkscape:label="Page 3" transform="translate(16.053851)" style="stroke-width:1.77641"><rect style="opacity:1;fill:#c1d8f3;fill-opacity:1;stroke:#3584e4;stroke-width:0.940016;stroke-linecap:round;stroke-dasharray:none;stroke-opacity:1" id="rect2159" width="14.816667" height="20.108334" x="3299.8293" y="-229.12819" rx="2.8082428" ry="2.8318973" /><text xml:space="preserve" transform="matrix(0.53168659,0,0,0.53260281,2100.9115,-1673.767)" id="text2165" style="font-style:normal;font-variant:normal;font-weight:normal;font-stretch:normal;font-size:8.61817px;line-height:1.25;font-family:Cantarell;-inkscape-font-specification:'Cantarell, @wght=700';font-variant-ligatures:normal;font-variant-caps:normal;font-variant-numeric:normal;font-variant-east-asian:normal;font-variation-settings:'wght' 700;white-space:pre;shape-inside:url(#rect2185);display:inline;fill:#3584e4;fill-opacity:1;stroke:none;stroke-width:0.883233" x="2.8013399" y="0"><tspan x="2258.0188" y="2745.5048" id="tspan5429"><tspan style="text-align:center;text-anchor:middle" id="tspan5427">3</tspan></tspan></text></g><g id="g2177" inkscape:label="Page 4" transform="translate(23.02555,6.7331853)" style="stroke-width:1.77641"><rect style="opacity:1;fill:#ffffff;fill-opacity:1;stroke:#3584e4;stroke-width:0.940016;stroke-linecap:round;stroke-dasharray:none;stroke-opacity:1" id="rect2169" width="14.816667" height="20.108334" x="-3316.1167" y="211.32367" rx="2.8082428" ry="2.8318973" transform="scale(-1)" /><text xml:space="preserve" transform="matrix(0.53168659,0,0,0.53260281,2102.4668,-1675.659)" id="text2175" style="font-style:normal;font-variant:normal;font-weight:normal;font-stretch:normal;font-size:8.61817px;line-height:1.25;font-family:Cantarell;-inkscape-font-specification:'Cantarell, @wght=700';font-variant-ligatures:normal;font-variant-caps:normal;font-variant-numeric:normal;font-variant-east-asian:normal;font-variation-settings:'wght' 700;white-space:pre;shape-inside:url(#rect2187);display:inline;fill:#3584e4;fill-opacity:1;stroke:none;stroke-width:0.883233" x="2.8013399" y="0"><tspan x="2257.8163" y="2745.5048" id="tspan5433"><tspan style="text-align:center;text-anchor:middle" id="tspan5431">4</tspan></tspan></text></g></g></g></svg>